<svg width="80" height="80" viewBox="0 0 80 80" fill="none" xmlns="http://www.w3.org/2000/svg">
<g opacity="0.8" clip-path="url(#clip0_1110_714)">
<path d="M40.0001 77.3333C30.8414 77.3333 24.1668 77.3293 19.0503 76.6635C13.9875 76.0046 10.7402 74.7281 8.27637 72.39C8.04848 72.1738 7.82628 71.9516 7.61001 71.7237C5.27193 69.2599 3.99547 66.0126 3.33659 60.9497C2.67072 55.8332 2.66675 49.1586 2.66675 40C2.66675 30.8413 2.67072 24.1667 3.33659 19.0502C3.99547 13.9873 5.27193 10.7401 7.61001 8.27624C7.82627 8.04835 8.04847 7.82615 8.27637 7.60989C10.7402 5.27181 13.9875 3.99534 19.0503 3.33647C24.1668 2.6706 30.8414 2.66663 40.0001 2.66663C49.1588 2.66663 55.8333 2.6706 60.9499 3.33647C66.0127 3.99534 69.26 5.27181 71.7238 7.60989C71.9517 7.82616 72.1739 8.04836 72.3902 8.27624C74.7282 10.7401 76.0047 13.9873 76.6636 19.0502C77.3294 24.1667 77.3334 30.8413 77.3334 40C77.3334 49.1586 77.3294 55.8332 76.6636 60.9497C76.0047 66.0126 74.7282 69.2599 72.3902 71.7237C72.1739 71.9516 71.9517 72.1738 71.7238 72.39C69.26 74.7281 66.0127 76.0046 60.9499 76.6635C55.8333 77.3293 49.1588 77.3333 40.0001 77.3333Z" fill="#686868" fill-opacity="0.5"/>
<path d="M40.0001 77.3333C30.8414 77.3333 24.1668 77.3293 19.0503 76.6635C13.9875 76.0046 10.7402 74.7281 8.27637 72.39C8.04848 72.1738 7.82628 71.9516 7.61001 71.7237C5.27193 69.2599 3.99547 66.0126 3.33659 60.9497C2.67072 55.8332 2.66675 49.1586 2.66675 40C2.66675 30.8413 2.67072 24.1667 3.33659 19.0502C3.99547 13.9873 5.27193 10.7401 7.61001 8.27624C7.82627 8.04835 8.04847 7.82615 8.27637 7.60989C10.7402 5.27181 13.9875 3.99534 19.0503 3.33647C24.1668 2.6706 30.8414 2.66663 40.0001 2.66663C49.1588 2.66663 55.8333 2.6706 60.9499 3.33647C66.0127 3.99534 69.26 5.27181 71.7238 7.60989C71.9517 7.82616 72.1739 8.04836 72.3902 8.27624C74.7282 10.7401 76.0047 13.9873 76.6636 19.0502C77.3294 24.1667 77.3334 30.8413 77.3334 40C77.3334 49.1586 77.3294 55.8332 76.6636 60.9497C76.0047 66.0126 74.7282 69.2599 72.3902 71.7237C72.1739 71.9516 71.9517 72.1738 71.7238 72.39C69.26 74.7281 66.0127 76.0046 60.9499 76.6635C55.8333 77.3293 49.1588 77.3333 40.0001 77.3333Z" fill="#ABABAB" fill-opacity="0.5"/>
<path d="M40.0001 77.3333C30.8414 77.3333 24.1668 77.3293 19.0503 76.6635C13.9875 76.0046 10.7402 74.7281 8.27637 72.39C8.04848 72.1738 7.82628 71.9516 7.61001 71.7237C5.27193 69.2599 3.99547 66.0126 3.33659 60.9497C2.67072 55.8332 2.66675 49.1586 2.66675 40C2.66675 30.8413 2.67072 24.1667 3.33659 19.0502C3.99547 13.9873 5.27193 10.7401 7.61001 8.27624C7.82627 8.04835 8.04847 7.82615 8.27637 7.60989C10.7402 5.27181 13.9875 3.99534 19.0503 3.33647C24.1668 2.6706 30.8414 2.66663 40.0001 2.66663C49.1588 2.66663 55.8333 2.6706 60.9499 3.33647C66.0127 3.99534 69.26 5.27181 71.7238 7.60989C71.9517 7.82616 72.1739 8.04836 72.3902 8.27624C74.7282 10.7401 76.0047 13.9873 76.6636 19.0502C77.3294 24.1667 77.3334 30.8413 77.3334 40C77.3334 49.1586 77.3294 55.8332 76.6636 60.9497C76.0047 66.0126 74.7282 69.2599 72.3902 71.7237C72.1739 71.9516 71.9517 72.1738 71.7238 72.39C69.26 74.7281 66.0127 76.0046 60.9499 76.6635C55.8333 77.3293 49.1588 77.3333 40.0001 77.3333Z" stroke="#5F5F5F" stroke-width="4"/>
<path d="M60.9998 40.0706H54.9998C54.9998 40.0568 54.9998 40.043 54.9999 40.0291L60.9998 40.0706ZM60.9998 61H66.9998C66.9998 63.1704 65.8277 65.1715 63.9347 66.2332C62.0417 67.2948 59.723 67.2514 57.871 66.1197L60.9998 61ZM43 50V44C44.104 44 45.1867 44.3046 46.1287 44.8803L43 50ZM55 30C55 27.7909 53.2091 26 51 26V14C59.8366 14 67 21.1634 67 30H55ZM55 40V30H67V40H55ZM54.9999 40.0291C55 40.0194 55 40.0097 55 40H67C67 40.0374 66.9999 40.0748 66.9996 40.1121L54.9999 40.0291ZM54.9998 61V40.0706H66.9998V61H54.9998ZM46.1287 44.8803L64.1285 55.8803L57.871 66.1197L39.8713 55.1197L46.1287 44.8803ZM29 44H43V56H29V44ZM25 40C25 42.2091 26.7909 44 29 44V56C20.1634 56 13 48.8366 13 40H25ZM25 30V40H13V30H25ZM29 26C26.7909 26 25 27.7909 25 30H13C13 21.1634 20.1634 14 29 14V26ZM51 26H29V14H51V26Z" fill="black" fill-opacity="0.4"/>
</g>
<defs>
<clipPath id="clip0_1110_714">
<rect width="80" height="80" fill="white"/>
</clipPath>
</defs>
</svg>
