<svg width="80" height="80" viewBox="0 0 80 80" fill="none" xmlns="http://www.w3.org/2000/svg">
<g opacity="0.6" clip-path="url(#clip0_1110_714)">
<path d="M0.666992 40C0.666992 21.7916 0.666992 12.6874 6.1595 6.89954C6.3998 6.64632 6.64668 6.39943 6.8999 6.15914C12.6878 0.666626 21.792 0.666626 40.0003 0.666626C58.2087 0.666626 67.3128 0.666626 73.1007 6.15914C73.354 6.39943 73.6009 6.64632 73.8411 6.89954C79.3337 12.6874 79.3337 21.7916 79.3337 40C79.3337 58.2083 79.3337 67.3125 73.8411 73.1004C73.6009 73.3536 73.354 73.6005 73.1007 73.8408C67.3128 79.3333 58.2087 79.3333 40.0003 79.3333C21.792 79.3333 12.6878 79.3333 6.8999 73.8408C6.64668 73.6005 6.3998 73.3536 6.1595 73.1004C0.666992 67.3125 0.666992 58.2083 0.666992 40Z" fill="#111111" fill-opacity="0.4"/>
<path d="M3.66699 40C3.66699 30.814 3.67296 24.2162 4.32847 19.1792C4.97351 14.2228 6.20164 11.2133 8.33563 8.9646C8.53988 8.74936 8.74973 8.53951 8.96496 8.33526C11.2137 6.20128 14.2231 4.97314 19.1796 4.3281C24.2166 3.67259 30.8144 3.66663 40.0003 3.66663C49.1863 3.66663 55.7841 3.67259 60.821 4.3281C65.7775 4.97314 68.7869 6.20128 71.0357 8.33526L73.1007 6.15914L71.0357 8.33527C71.2509 8.53952 71.4608 8.74937 71.665 8.9646C73.799 11.2133 75.0271 14.2228 75.6722 19.1792C76.3277 24.2162 76.3337 30.814 76.3337 40C76.3337 49.1859 76.3277 55.7837 75.6722 60.8207C75.0271 65.7772 73.799 68.7866 71.665 71.0353C71.4608 71.2506 71.2509 71.4604 71.0357 71.6647C68.7869 73.7986 65.7775 75.0268 60.821 75.6718C55.7841 76.3273 49.1863 76.3333 40.0003 76.3333C30.8144 76.3333 24.2166 76.3273 19.1796 75.6718C14.2231 75.0268 11.2137 73.7986 8.96497 71.6647C8.74974 71.4604 8.53989 71.2506 8.33563 71.0353L6.1595 73.1004L8.33563 71.0353C6.20164 68.7866 4.97351 65.7772 4.32847 60.8207C3.67296 55.7837 3.66699 49.1859 3.66699 40Z" stroke="#EEEEEE" stroke-opacity="0.5" stroke-width="6"/>
<path d="M58 58H63C63 59.807 62.025 61.4735 60.4497 62.3588C58.8744 63.2441 56.944 63.2106 55.4005 62.2711L58 58ZM42.5716 48.6098L39.9721 52.8809C38.5919 52.0409 37.7027 50.5857 37.5849 48.9742C37.4672 47.3628 38.1354 45.7938 39.3788 44.762L42.5716 48.6098ZM42.5717 48.6097V43.6097C44.6788 43.6097 46.5597 44.9306 47.2749 46.9125C47.9901 48.8945 47.3861 51.112 45.7646 52.4575L42.5717 48.6097ZM53 33C53 30.2386 50.7614 28 48 28V18C56.2843 18 63 24.7157 63 33H53ZM53 35.8049V33H63V35.8049H53ZM53 38.6097V35.8049H63V38.6097H53ZM53 58V38.6097H63V58H53ZM45.1712 44.3387L60.5995 53.7289L55.4005 62.2711L39.9721 52.8809L45.1712 44.3387ZM45.7646 52.4575L45.7645 52.4576L39.3788 44.762L39.3789 44.7619L45.7646 52.4575ZM32 43.6097H42.5717V53.6097H32V43.6097ZM27 38.6097C27 41.3711 29.2386 43.6097 32 43.6097V53.6097C23.7157 53.6097 17 46.894 17 38.6097H27ZM27 33V38.6097H17V33H27ZM32 28C29.2386 28 27 30.2386 27 33H17C17 24.7157 23.7157 18 32 18V28ZM48 28H32V18H48V28Z" fill="white"/>
</g>
<defs>
<clipPath id="clip0_1110_714">
<rect width="80" height="80" fill="white"/>
</clipPath>
</defs>
</svg>
