<svg width="80" height="80" viewBox="0 0 80 80" fill="none" xmlns="http://www.w3.org/2000/svg">
<g opacity="0.6" clip-path="url(#clip0_2266_2096)">
<path d="M0.666748 40C0.666748 21.7916 0.666748 12.6874 6.15926 6.89954C6.39956 6.64632 6.64644 6.39943 6.89966 6.15914C12.6876 0.666626 21.7917 0.666626 40.0001 0.666626C58.2084 0.666626 67.3126 0.666626 73.1005 6.15914C73.3537 6.39943 73.6006 6.64632 73.8409 6.89954C79.3334 12.6874 79.3334 21.7916 79.3334 40C79.3334 58.2083 79.3334 67.3125 73.8409 73.1004C73.6006 73.3536 73.3537 73.6005 73.1005 73.8408C67.3126 79.3333 58.2084 79.3333 40.0001 79.3333C21.7917 79.3333 12.6876 79.3333 6.89966 73.8408C6.64644 73.6005 6.39956 73.3536 6.15926 73.1004C0.666748 67.3125 0.666748 58.2083 0.666748 40Z" fill="#111111" fill-opacity="0.4"/>
<path d="M40.0001 76.3333C30.8141 76.3333 24.2163 76.3273 19.1794 75.6718C14.2229 75.0268 11.2135 73.7986 8.96472 71.6647C8.7495 71.4604 8.53965 71.2506 8.33538 71.0353C6.2014 68.7866 4.97326 65.7772 4.32823 60.8207C3.67271 55.7837 3.66675 49.1859 3.66675 40C3.66675 30.814 3.67271 24.2162 4.32823 19.1792C4.97326 14.2228 6.2014 11.2133 8.33538 8.9646C8.53963 8.74936 8.74949 8.53951 8.96472 8.33526C11.2135 6.20128 14.2229 4.97314 19.1794 4.3281C24.2163 3.67259 30.8141 3.66663 40.0001 3.66663C49.186 3.66663 55.7838 3.67259 60.8208 4.3281C65.7773 4.97314 68.7867 6.20128 71.0354 8.33526C71.2507 8.53952 71.4605 8.74938 71.6648 8.9646C73.7988 11.2133 75.0269 14.2228 75.6719 19.1792C76.3274 24.2162 76.3334 30.814 76.3334 40C76.3334 49.1859 76.3274 55.7837 75.6719 60.8207C75.0269 65.7772 73.7988 68.7866 71.6648 71.0353C71.4605 71.2505 71.2507 71.4604 71.0354 71.6647C68.7867 73.7986 65.7773 75.0268 60.8208 75.6718C55.7838 76.3273 49.186 76.3333 40.0001 76.3333Z" stroke="#EEEEEE" stroke-opacity="0.5" stroke-width="6"/>
<path d="M24.7407 18V61.5M37.6296 29.8148H14M29.037 50.2222H14" stroke="white" stroke-width="8" stroke-linecap="round" stroke-linejoin="round"/>
<path d="M64.9838 28.4567C62.8015 22.928 58.7707 20.6009 52.8915 21.4752L38.4958 48.7365C42.1351 49.4147 45.1581 51.16 47.5651 53.9726L64.9838 28.4567Z" stroke="white" stroke-width="8" stroke-linejoin="round"/>
<path d="M39.9498 56.6904L47.5651 53.9726C45.1581 51.16 42.1351 49.4146 38.4958 48.7365L39.9498 56.6904Z" stroke="white" stroke-width="8" stroke-linejoin="round"/>
</g>
<defs>
<clipPath id="clip0_2266_2096">
<rect width="80" height="80" fill="white"/>
</clipPath>
</defs>
</svg>
