<svg width="180" height="180" viewBox="0 0 180 180" fill="none" xmlns="http://www.w3.org/2000/svg">
<g opacity="0.4">
<path d="M2 90C2 50.0299 2 30.0448 13.6913 17.0603C14.7547 15.8792 15.8792 14.7547 17.0603 13.6913C30.0448 2 50.0299 2 90 2C129.97 2 149.955 2 162.94 13.6913C164.121 14.7547 165.245 15.8792 166.309 17.0603C178 30.0448 178 50.0299 178 90C178 129.97 178 149.955 166.309 162.94C165.245 164.121 164.121 165.245 162.94 166.309C149.955 178 129.97 178 90 178C50.0299 178 30.0448 178 17.0603 166.309C15.8792 165.245 14.7547 164.121 13.6913 162.94C2 149.955 2 129.97 2 90Z" fill="#111111" fill-opacity="0.4"/>
<path d="M90 175C69.9362 175 55.1698 174.994 43.785 173.562C32.4753 172.139 24.9214 169.35 19.0677 164.079C17.9645 163.086 16.9141 162.036 15.9208 160.932C10.65 155.079 7.86089 147.525 6.43795 136.215C5.00557 124.83 5 110.064 5 90C5 69.9362 5.00557 55.1698 6.43795 43.785C7.86089 32.4753 10.65 24.9214 15.9208 19.0677C16.9141 17.9645 17.9645 16.9141 19.0677 15.9208C24.9214 10.65 32.4753 7.86089 43.785 6.43795C55.1698 5.00557 69.9362 5 90 5C110.064 5 124.83 5.00557 136.215 6.43795C147.525 7.86089 155.079 10.65 160.932 15.9208C162.036 16.9141 163.086 17.9645 164.079 19.0677C169.35 24.9214 172.139 32.4753 173.562 43.785C174.994 55.1698 175 69.9362 175 90C175 110.064 174.994 124.83 173.562 136.215C172.139 147.525 169.35 155.079 164.079 160.932C163.086 162.036 162.036 163.086 160.932 164.079C155.079 169.35 147.525 172.139 136.215 173.562C124.83 174.994 110.064 175 90 175Z" stroke="#EEEEEE" stroke-opacity="0.5" stroke-width="6"/>
<circle cx="90" cy="90" r="48.375" stroke="white" stroke-width="12"/>
</g>
</svg>
