<svg width="180" height="180" viewBox="0 0 180 180" fill="none" xmlns="http://www.w3.org/2000/svg">
<g opacity="0.5">
<path d="M90 176C69.9624 176 55.1219 175.996 43.6602 174.554C32.2485 173.118 24.4651 170.285 18.3985 164.822C17.2694 163.806 16.1943 162.731 15.1776 161.601C9.71523 155.535 6.88154 147.752 5.44577 136.34C4.00371 124.878 4 110.038 4 90C4 69.9624 4.00371 55.1219 5.44577 43.6602C6.88154 32.2485 9.71523 24.4651 15.1776 18.3985C16.1943 17.2694 17.2694 16.1943 18.3985 15.1776C24.4651 9.71523 32.2485 6.88154 43.6602 5.44577C55.1219 4.00371 69.9624 4 90 4C110.038 4 124.878 4.00371 136.34 5.44577C147.752 6.88154 155.535 9.71523 161.601 15.1776C162.731 16.1943 163.806 17.2694 164.822 18.3985C170.285 24.4651 173.118 32.2485 174.554 43.6602C175.996 55.1219 176 69.9624 176 90C176 110.038 175.996 124.878 174.554 136.34C173.118 147.752 170.285 155.535 164.822 161.601C163.806 162.731 162.731 163.806 161.601 164.822C155.535 170.285 147.752 173.118 136.34 174.554C124.878 175.996 110.038 176 90 176Z" fill="#686868" fill-opacity="0.5"/>
<path d="M90 176C69.9624 176 55.1219 175.996 43.6602 174.554C32.2485 173.118 24.4651 170.285 18.3985 164.822C17.2694 163.806 16.1943 162.731 15.1776 161.601C9.71523 155.535 6.88154 147.752 5.44577 136.34C4.00371 124.878 4 110.038 4 90C4 69.9624 4.00371 55.1219 5.44577 43.6602C6.88154 32.2485 9.71523 24.4651 15.1776 18.3985C16.1943 17.2694 17.2694 16.1943 18.3985 15.1776C24.4651 9.71523 32.2485 6.88154 43.6602 5.44577C55.1219 4.00371 69.9624 4 90 4C110.038 4 124.878 4.00371 136.34 5.44577C147.752 6.88154 155.535 9.71523 161.601 15.1776C162.731 16.1943 163.806 17.2694 164.822 18.3985C170.285 24.4651 173.118 32.2485 174.554 43.6602C175.996 55.1219 176 69.9624 176 90C176 110.038 175.996 124.878 174.554 136.34C173.118 147.752 170.285 155.535 164.822 161.601C163.806 162.731 162.731 163.806 161.601 164.822C155.535 170.285 147.752 173.118 136.34 174.554C124.878 175.996 110.038 176 90 176Z" fill="#ABABAB" fill-opacity="0.5"/>
<path d="M90 176C69.9624 176 55.1219 175.996 43.6602 174.554C32.2485 173.118 24.4651 170.285 18.3985 164.822C17.2694 163.806 16.1943 162.731 15.1776 161.601C9.71523 155.535 6.88154 147.752 5.44577 136.34C4.00371 124.878 4 110.038 4 90C4 69.9624 4.00371 55.1219 5.44577 43.6602C6.88154 32.2485 9.71523 24.4651 15.1776 18.3985C16.1943 17.2694 17.2694 16.1943 18.3985 15.1776C24.4651 9.71523 32.2485 6.88154 43.6602 5.44577C55.1219 4.00371 69.9624 4 90 4C110.038 4 124.878 4.00371 136.34 5.44577C147.752 6.88154 155.535 9.71523 161.601 15.1776C162.731 16.1943 163.806 17.2694 164.822 18.3985C170.285 24.4651 173.118 32.2485 174.554 43.6602C175.996 55.1219 176 69.9624 176 90C176 110.038 175.996 124.878 174.554 136.34C173.118 147.752 170.285 155.535 164.822 161.601C163.806 162.731 162.731 163.806 161.601 164.822C155.535 170.285 147.752 173.118 136.34 174.554C124.878 175.996 110.038 176 90 176Z" stroke="#5F5F5F" stroke-width="4"/>
<circle cx="90" cy="90" r="48.375" stroke="black" stroke-opacity="0.4" stroke-width="12"/>
</g>
</svg>
