<?xml version="1.0" encoding="UTF-8"?>
<!DOCTYPE svg PUBLIC "-//W3C//DTD SVG 1.1//EN" "http://www.w3.org/Graphics/SVG/1.1/DTD/svg11.dtd">
<svg width="120" height="120" viewBox="0 0 120 120" fill="none" xmlns="http://www.w3.org/2000/svg">
<g opacity="0.5">
<path d="M60 116.5C46.7887 116.5 37.0209 116.497 29.4806 115.549C21.9777 114.605 16.8895 112.745 12.9298 109.18C12.1903 108.514 11.4862 107.81 10.8204 107.07C7.255 103.11 5.39544 98.0223 4.45147 90.5194C3.50278 82.9791 3.5 73.2113 3.5 60C3.5 46.7887 3.50278 37.0209 4.45147 29.4806C5.39544 21.9777 7.255 16.8895 10.8204 12.9298C11.4862 12.1903 12.1903 11.4862 12.9298 10.8204C16.8895 7.255 21.9777 5.39544 29.4806 4.45147C37.0209 3.50278 46.7887 3.5 60 3.5C73.2113 3.5 82.9791 3.50278 90.5194 4.45147C98.0223 5.39544 103.11 7.255 107.07 10.8204C107.81 11.4862 108.514 12.1903 109.18 12.9298C112.745 16.8895 114.605 21.9777 115.549 29.4806C116.497 37.0209 116.5 46.7887 116.5 60C116.5 73.2113 116.497 82.9791 115.549 90.5194C114.605 98.0223 112.745 103.11 109.18 107.07C108.514 107.81 107.81 108.514 107.07 109.18C103.11 112.745 98.0223 114.605 90.5194 115.549C82.9791 116.497 73.2113 116.5 60 116.5Z" fill="#686868" fill-opacity="0.5"/>
<path d="M60 116.5C46.7887 116.5 37.0209 116.497 29.4806 115.549C21.9777 114.605 16.8895 112.745 12.9298 109.18C12.1903 108.514 11.4862 107.81 10.8204 107.07C7.255 103.11 5.39544 98.0223 4.45147 90.5194C3.50278 82.9791 3.5 73.2113 3.5 60C3.5 46.7887 3.50278 37.0209 4.45147 29.4806C5.39544 21.9777 7.255 16.8895 10.8204 12.9298C11.4862 12.1903 12.1903 11.4862 12.9298 10.8204C16.8895 7.255 21.9777 5.39544 29.4806 4.45147C37.0209 3.50278 46.7887 3.5 60 3.5C73.2113 3.5 82.9791 3.50278 90.5194 4.45147C98.0223 5.39544 103.11 7.255 107.07 10.8204C107.81 11.4862 108.514 12.1903 109.18 12.9298C112.745 16.8895 114.605 21.9777 115.549 29.4806C116.497 37.0209 116.5 46.7887 116.5 60C116.5 73.2113 116.497 82.9791 115.549 90.5194C114.605 98.0223 112.745 103.11 109.18 107.07C108.514 107.81 107.81 108.514 107.07 109.18C103.11 112.745 98.0223 114.605 90.5194 115.549C82.9791 116.497 73.2113 116.5 60 116.5Z" fill="#ABABAB" fill-opacity="0.5"/>
<path d="M60 116.5C46.7887 116.5 37.0209 116.497 29.4806 115.549C21.9777 114.605 16.8895 112.745 12.9298 109.18C12.1903 108.514 11.4862 107.81 10.8204 107.07C7.255 103.11 5.39544 98.0223 4.45147 90.5194C3.50278 82.9791 3.5 73.2113 3.5 60C3.5 46.7887 3.50278 37.0209 4.45147 29.4806C5.39544 21.9777 7.255 16.8895 10.8204 12.9298C11.4862 12.1903 12.1903 11.4862 12.9298 10.8204C16.8895 7.255 21.9777 5.39544 29.4806 4.45147C37.0209 3.50278 46.7887 3.5 60 3.5C73.2113 3.5 82.9791 3.50278 90.5194 4.45147C98.0223 5.39544 103.11 7.255 107.07 10.8204C107.81 11.4862 108.514 12.1903 109.18 12.9298C112.745 16.8895 114.605 21.9777 115.549 29.4806C116.497 37.0209 116.5 46.7887 116.5 60C116.5 73.2113 116.497 82.9791 115.549 90.5194C114.605 98.0223 112.745 103.11 109.18 107.07C108.514 107.81 107.81 108.514 107.07 109.18C103.11 112.745 98.0223 114.605 90.5194 115.549C82.9791 116.497 73.2113 116.5 60 116.5Z" stroke="#5F5F5F" stroke-width="3"/>
<circle cx="60" cy="60" r="29.5" stroke="black" stroke-opacity="0.4" stroke-width="9"/>
</g>
</svg>
