<svg width="80" height="80" viewBox="0 0 80 80" fill="none" xmlns="http://www.w3.org/2000/svg">
<g opacity="0.4">
<path d="M1.33301 40C1.33301 22.4374 1.33301 13.6561 6.47011 7.95076C6.93736 7.43183 7.43146 6.93773 7.9504 6.47048C13.6557 1.33337 22.437 1.33337 39.9997 1.33337C57.5623 1.33337 66.3436 1.33337 72.049 6.47048C72.5679 6.93773 73.062 7.43183 73.5292 7.95076C78.6663 13.6561 78.6663 22.4374 78.6663 40C78.6663 57.5627 78.6663 66.344 73.5292 72.0493C73.062 72.5683 72.5679 73.0624 72.049 73.5296C66.3436 78.6667 57.5623 78.6667 39.9997 78.6667C22.437 78.6667 13.6557 78.6667 7.9504 73.5296C7.43146 73.0624 6.93736 72.5683 6.47011 72.0493C1.33301 66.344 1.33301 57.5627 1.33301 40Z" fill="#111111" fill-opacity="0.4"/>
<path d="M39.9997 75.6667C31.1396 75.6667 24.7761 75.6611 19.903 75.048C15.105 74.4444 12.1719 73.2938 9.95779 71.3002C9.51669 70.903 9.0967 70.483 8.69955 70.0419C6.70591 67.8278 5.55534 64.8947 4.95168 60.0967C4.33858 55.2236 4.33301 48.8601 4.33301 40C4.33301 31.14 4.33858 24.7764 4.95168 19.9034C5.55534 15.1054 6.70591 12.1723 8.69955 9.95815C9.09671 9.51706 9.5167 9.09707 9.95779 8.69991C12.1719 6.70627 15.105 5.55571 19.903 4.95205C24.7761 4.33894 31.1396 4.33337 39.9997 4.33337C48.8597 4.33337 55.2233 4.33894 60.0963 4.95205C64.8943 5.55571 67.8274 6.70627 70.0416 8.69991C70.4827 9.09707 70.9026 9.51705 71.2998 9.95815C73.2934 12.1723 74.444 15.1054 75.0477 19.9034C75.6608 24.7764 75.6663 31.14 75.6663 40C75.6663 48.8601 75.6608 55.2236 75.0477 60.0967C74.444 64.8947 73.2934 67.8278 71.2998 70.0419C70.9026 70.483 70.4827 70.903 70.0416 71.3002C67.8274 73.2938 64.8943 74.4444 60.0963 75.048C55.2233 75.6611 48.8597 75.6667 39.9997 75.6667Z" stroke="#EEEEEE" stroke-opacity="0.5" stroke-width="6"/>
<rect x="48" y="21" width="10" height="38" rx="5" fill="white"/>
<rect x="22" y="21" width="10" height="38" rx="5" fill="white"/>
</g>
</svg>
