<svg width="80" height="80" viewBox="0 0 80 80" fill="none" xmlns="http://www.w3.org/2000/svg">
<g opacity="0.8">
<path d="M39.9999 76.6667C31.1661 76.6667 24.7284 76.663 19.7785 76.0402C14.8785 75.4237 11.7159 74.2286 9.2889 72.0433C8.82186 71.6228 8.37716 71.1781 7.95665 70.7111C5.77137 68.2841 4.57623 65.1214 3.95975 60.2215C3.33697 55.2715 3.33325 48.8338 3.33325 40C3.33325 31.1662 3.33697 24.7285 3.95975 19.7786C4.57623 14.8786 5.77137 11.716 7.95665 9.28902C8.37717 8.82198 8.82186 8.37729 9.2889 7.95677C11.7159 5.77149 14.8785 4.57635 19.7785 3.95987C24.7284 3.33709 31.1661 3.33337 39.9999 3.33337C48.8337 3.33337 55.2714 3.33709 60.2214 3.95987C65.1213 4.57635 68.2839 5.77149 70.7109 7.95677C71.178 8.37729 71.6227 8.82198 72.0432 9.28902C74.2285 11.716 75.4236 14.8786 76.0401 19.7786C76.6629 24.7285 76.6666 31.1662 76.6666 40C76.6666 48.8338 76.6629 55.2715 76.0401 60.2215C75.4236 65.1214 74.2285 68.2841 72.0432 70.7111C71.6227 71.1781 71.178 71.6228 70.7109 72.0433C68.2839 74.2286 65.1213 75.4237 60.2214 76.0402C55.2714 76.663 48.8337 76.6667 39.9999 76.6667Z" fill="#686868" fill-opacity="0.5"/>
<path d="M39.9999 76.6667C31.1661 76.6667 24.7284 76.663 19.7785 76.0402C14.8785 75.4237 11.7159 74.2286 9.2889 72.0433C8.82186 71.6228 8.37716 71.1781 7.95665 70.7111C5.77137 68.2841 4.57623 65.1214 3.95975 60.2215C3.33697 55.2715 3.33325 48.8338 3.33325 40C3.33325 31.1662 3.33697 24.7285 3.95975 19.7786C4.57623 14.8786 5.77137 11.716 7.95665 9.28902C8.37717 8.82198 8.82186 8.37729 9.2889 7.95677C11.7159 5.77149 14.8785 4.57635 19.7785 3.95987C24.7284 3.33709 31.1661 3.33337 39.9999 3.33337C48.8337 3.33337 55.2714 3.33709 60.2214 3.95987C65.1213 4.57635 68.2839 5.77149 70.7109 7.95677C71.178 8.37729 71.6227 8.82198 72.0432 9.28902C74.2285 11.716 75.4236 14.8786 76.0401 19.7786C76.6629 24.7285 76.6666 31.1662 76.6666 40C76.6666 48.8338 76.6629 55.2715 76.0401 60.2215C75.4236 65.1214 74.2285 68.2841 72.0432 70.7111C71.6227 71.1781 71.178 71.6228 70.7109 72.0433C68.2839 74.2286 65.1213 75.4237 60.2214 76.0402C55.2714 76.663 48.8337 76.6667 39.9999 76.6667Z" fill="#ABABAB" fill-opacity="0.5"/>
<path d="M39.9999 76.6667C31.1661 76.6667 24.7284 76.663 19.7785 76.0402C14.8785 75.4237 11.7159 74.2286 9.2889 72.0433C8.82186 71.6228 8.37716 71.1781 7.95665 70.7111C5.77137 68.2841 4.57623 65.1214 3.95975 60.2215C3.33697 55.2715 3.33325 48.8338 3.33325 40C3.33325 31.1662 3.33697 24.7285 3.95975 19.7786C4.57623 14.8786 5.77137 11.716 7.95665 9.28902C8.37717 8.82198 8.82186 8.37729 9.2889 7.95677C11.7159 5.77149 14.8785 4.57635 19.7785 3.95987C24.7284 3.33709 31.1661 3.33337 39.9999 3.33337C48.8337 3.33337 55.2714 3.33709 60.2214 3.95987C65.1213 4.57635 68.2839 5.77149 70.7109 7.95677C71.178 8.37729 71.6227 8.82198 72.0432 9.28902C74.2285 11.716 75.4236 14.8786 76.0401 19.7786C76.6629 24.7285 76.6666 31.1662 76.6666 40C76.6666 48.8338 76.6629 55.2715 76.0401 60.2215C75.4236 65.1214 74.2285 68.2841 72.0432 70.7111C71.6227 71.1781 71.178 71.6228 70.7109 72.0433C68.2839 74.2286 65.1213 75.4237 60.2214 76.0402C55.2714 76.663 48.8337 76.6667 39.9999 76.6667Z" stroke="#5F5F5F" stroke-width="4"/>
<rect x="48" y="19" width="12" height="42" rx="6" fill="black" fill-opacity="0.4"/>
<rect x="20" y="19" width="12" height="42" rx="6" fill="black" fill-opacity="0.4"/>
</g>
</svg>
