<svg width="140" height="140" viewBox="0 0 140 140" fill="none" xmlns="http://www.w3.org/2000/svg">
<g opacity="0.5">
<path d="M4 70C4 54.5045 4.00371 43.0706 5.11363 34.2487C6.21726 25.4769 8.38667 19.5668 12.5205 14.9757C13.2955 14.115 14.115 13.2955 14.9757 12.5205C19.5668 8.38667 25.4769 6.21726 34.2487 5.11363C43.0706 4.00371 54.5045 4 70 4C85.4955 4 96.9295 4.00371 105.751 5.11363C114.523 6.21726 120.433 8.38667 125.024 12.5205C125.885 13.2955 126.705 14.115 127.479 14.9757C131.613 19.5668 133.783 25.4769 134.886 34.2487C135.996 43.0706 136 54.5045 136 70C136 85.4955 135.996 96.9295 134.886 105.751C133.783 114.523 131.613 120.433 127.479 125.024C126.705 125.885 125.885 126.705 125.024 127.479C120.433 131.613 114.523 133.783 105.751 134.886C96.9295 135.996 85.4955 136 70 136C54.5045 136 43.0706 135.996 34.2487 134.886C25.4769 133.783 19.5668 131.613 14.9757 127.479C14.115 126.705 13.2955 125.885 12.5205 125.024C8.38667 120.433 6.21726 114.523 5.11363 105.751C4.00371 96.9295 4 85.4955 4 70Z" fill="#686868" fill-opacity="0.5"/>
<path d="M4 70C4 54.5045 4.00371 43.0706 5.11363 34.2487C6.21726 25.4769 8.38667 19.5668 12.5205 14.9757C13.2955 14.115 14.115 13.2955 14.9757 12.5205C19.5668 8.38667 25.4769 6.21726 34.2487 5.11363C43.0706 4.00371 54.5045 4 70 4C85.4955 4 96.9295 4.00371 105.751 5.11363C114.523 6.21726 120.433 8.38667 125.024 12.5205C125.885 13.2955 126.705 14.115 127.479 14.9757C131.613 19.5668 133.783 25.4769 134.886 34.2487C135.996 43.0706 136 54.5045 136 70C136 85.4955 135.996 96.9295 134.886 105.751C133.783 114.523 131.613 120.433 127.479 125.024C126.705 125.885 125.885 126.705 125.024 127.479C120.433 131.613 114.523 133.783 105.751 134.886C96.9295 135.996 85.4955 136 70 136C54.5045 136 43.0706 135.996 34.2487 134.886C25.4769 133.783 19.5668 131.613 14.9757 127.479C14.115 126.705 13.2955 125.885 12.5205 125.024C8.38667 120.433 6.21726 114.523 5.11363 105.751C4.00371 96.9295 4 85.4955 4 70Z" fill="#ABABAB" fill-opacity="0.5"/>
<path d="M4 70C4 54.5045 4.00371 43.0706 5.11363 34.2487C6.21726 25.4769 8.38667 19.5668 12.5205 14.9757C13.2955 14.115 14.115 13.2955 14.9757 12.5205C19.5668 8.38667 25.4769 6.21726 34.2487 5.11363C43.0706 4.00371 54.5045 4 70 4C85.4955 4 96.9295 4.00371 105.751 5.11363C114.523 6.21726 120.433 8.38667 125.024 12.5205C125.885 13.2955 126.705 14.115 127.479 14.9757C131.613 19.5668 133.783 25.4769 134.886 34.2487C135.996 43.0706 136 54.5045 136 70C136 85.4955 135.996 96.9295 134.886 105.751C133.783 114.523 131.613 120.433 127.479 125.024C126.705 125.885 125.885 126.705 125.024 127.479C120.433 131.613 114.523 133.783 105.751 134.886C96.9295 135.996 85.4955 136 70 136C54.5045 136 43.0706 135.996 34.2487 134.886C25.4769 133.783 19.5668 131.613 14.9757 127.479C14.115 126.705 13.2955 125.885 12.5205 125.024C8.38667 120.433 6.21726 114.523 5.11363 105.751C4.00371 96.9295 4 85.4955 4 70Z" stroke="#5F5F5F" stroke-width="4"/>
<path d="M38.323 71.3073C35.3948 60.3791 33.9307 54.915 36.416 50.6104C38.9013 46.3057 44.3654 44.8416 55.2936 41.9134L68.6928 38.3231C79.621 35.3949 85.0851 33.9308 89.3897 36.4161C93.6944 38.9014 95.1585 44.3655 98.0867 55.2937L101.677 68.6929C104.605 79.6211 106.069 85.0852 103.584 89.3899C101.099 93.6945 95.6346 95.1586 84.7064 98.0868L71.3072 101.677C60.379 104.605 54.9149 106.069 50.6103 103.584C46.3056 101.099 44.8415 95.6348 41.9133 84.7066L38.323 71.3073Z" stroke="black" stroke-opacity="0.4" stroke-width="12"/>
</g>
</svg>
