<svg width="140" height="140" viewBox="0 0 140 140" fill="none" xmlns="http://www.w3.org/2000/svg">
<g opacity="0.3">
<path d="M2 70C2 39.114 2 23.671 11.0342 13.6375C11.8559 12.7249 12.7249 11.8559 13.6375 11.0342C23.671 2 39.114 2 70 2C100.886 2 116.329 2 126.363 11.0342C127.275 11.8559 128.144 12.7249 128.966 13.6375C138 23.671 138 39.114 138 70C138 100.886 138 116.329 128.966 126.363C128.144 127.275 127.275 128.144 126.363 128.966C116.329 138 100.886 138 70 138C39.114 138 23.671 138 13.6375 128.966C12.7249 128.144 11.8559 127.275 11.0342 126.363C2 116.329 2 100.886 2 70Z" fill="#111111" fill-opacity="0.4"/>
<path d="M5 70C5 54.4783 5.00557 43.1185 6.10581 34.3735C7.19661 25.7037 9.32146 20.0231 13.2636 15.6449L11.0342 13.6375L13.2637 15.6449C14.0153 14.8101 14.8101 14.0153 15.6449 13.2637L13.6375 11.0342L15.6449 13.2636C20.0231 9.32146 25.7037 7.19661 34.3735 6.10581C43.1185 5.00557 54.4783 5 70 5C85.5217 5 96.8815 5.00557 105.626 6.10581C114.296 7.19661 119.977 9.32146 124.355 13.2637C125.19 14.0153 125.985 14.8101 126.736 15.6449L128.966 13.6375L126.736 15.6449C130.679 20.0231 132.803 25.7037 133.894 34.3735C134.994 43.1185 135 54.4783 135 70C135 85.5217 134.994 96.8815 133.894 105.626C132.803 114.296 130.679 119.977 126.736 124.355C125.985 125.19 125.19 125.985 124.355 126.736C119.977 130.679 114.296 132.803 105.626 133.894C96.8815 134.994 85.5217 135 70 135C54.4783 135 43.1185 134.994 34.3735 133.894C25.7037 132.803 20.0231 130.679 15.6449 126.736L13.6375 128.966L15.6449 126.736C14.8101 125.985 14.0153 125.19 13.2636 124.355C9.32146 119.977 7.19661 114.296 6.10581 105.626C5.00557 96.8815 5 85.5217 5 70Z" stroke="#EEEEEE" stroke-opacity="0.5" stroke-width="6"/>
<path d="M38.3228 71.3073C35.3946 60.3791 33.9305 54.915 36.4157 50.6104C38.901 46.3057 44.3651 44.8416 55.2933 41.9134L68.6926 38.3231C79.6208 35.3949 85.0849 33.9308 89.3895 36.4161C93.6941 38.9014 95.1582 44.3655 98.0864 55.2937L101.677 68.6929C104.605 79.6211 106.069 85.0852 103.584 89.3899C101.098 93.6945 95.6344 95.1586 84.7062 98.0868L71.3069 101.677C60.3787 104.605 54.9146 106.069 50.61 103.584C46.3054 101.099 44.8413 95.6348 41.9131 84.7066L38.3228 71.3073Z" stroke="white" stroke-width="12"/>
</g>
</svg>
